HIERARCHY
ROOT Hips
{
	OFFSET 0.00000 0.00000 0.00000
	CHANNELS 6 Xposition Yposition Zposition Zrotation Yrotation Xrotation 
	JOINT LHipJoint
	{
		OFFSET 0 0 0
		CHANNELS 3 Zrotation Yrotation Xrotation
		JOINT LeftUpLeg
		{
			OFFSET 1.58895 -1.83665 0.71753
			CHANNELS 3 Zrotation Yrotation Xrotation
			JOINT LeftLeg
			{
				OFFSET 2.50528 -6.88321 0.00000
				CHANNELS 3 Zrotation Yrotation Xrotation
				JOINT LeftFoot
				{
					OFFSET 2.63244 -7.23257 0.00000
					CHANNELS 3 Zrotation Yrotation Xrotation
					JOINT LeftToeBase
					{
						OFFSET 0.23691 -0.65090 1.72750
						CHANNELS 3 Zrotation Yrotation Xrotation
						End Site
						{
							OFFSET 0.00000 -0.00000 0.92561
						}
					}
				}
			}
		}
	}
	JOINT RHipJoint
	{
		OFFSET 0 0 0
		CHANNELS 3 Zrotation Yrotation Xrotation
		JOINT RightUpLeg
		{
			OFFSET -1.51435 -1.83665 0.71753
			CHANNELS 3 Zrotation Yrotation Xrotation
			JOINT RightLeg
			{
				OFFSET -2.54551 -6.99375 0.00000
				CHANNELS 3 Zrotation Yrotation Xrotation
				JOINT RightFoot
				{
					OFFSET -2.66027 -7.30903 0.00000
					CHANNELS 3 Zrotation Yrotation Xrotation
					JOINT RightToeBase
					{
						OFFSET -0.22981 -0.63138 2.03959
						CHANNELS 3 Zrotation Yrotation Xrotation
						End Site
						{
							OFFSET -0.00000 -0.00000 1.07060
						}
					}
				}
			}
		}
	}
	JOINT LowerBack
	{
		OFFSET 0 0 0
		CHANNELS 3 Zrotation Yrotation Xrotation
		JOINT Spine
		{
			OFFSET -0.02651 1.86275 -0.11152
			CHANNELS 3 Zrotation Yrotation Xrotation
			JOINT Spine1
			{
				OFFSET 0.01019 1.86224 0.04087
				CHANNELS 3 Zrotation Yrotation Xrotation
				JOINT Neck
				{
					OFFSET 0 0 0
					CHANNELS 3 Zrotation Yrotation Xrotation
					JOINT Neck1
					{
						OFFSET -0.01926 1.80512 0.08867
						CHANNELS 3 Zrotation Yrotation Xrotation
						JOINT Head
						{
							OFFSET 0.05516 1.76451 -0.38475
							CHANNELS 3 Zrotation Yrotation Xrotation
							End Site
							{
								OFFSET 0.01592 1.82587 -0.14001
							}
						}
					}
				}
				JOINT LeftShoulder
				{
					OFFSET 0 0 0
					CHANNELS 3 Zrotation Yrotation Xrotation
					JOINT LeftArm
					{
						OFFSET 3.47116 1.51376 0.14491
						CHANNELS 3 Zrotation Yrotation Xrotation
						JOINT LeftForeArm
						{
							OFFSET 4.78095 -0.00000 0.00000
							CHANNELS 3 Zrotation Yrotation Xrotation
							JOINT LeftHand
							{
								OFFSET 3.58615 -0.00000 -0.00000
								CHANNELS 3 Zrotation Yrotation Xrotation
								JOINT LeftFingerBase
								{
									OFFSET 0 0 0
									CHANNELS 3 Zrotation Yrotation Xrotation
									JOINT LeftHandIndex1
									{
										OFFSET 0.65981 -0.00000 0.00000
										CHANNELS 3 Zrotation Yrotation Xrotation
										End Site
										{
											OFFSET 0.53196 -0.00000 0.00000
										}
									}
								}
								JOINT LThumb
								{
									OFFSET 0 0 0
									CHANNELS 3 Zrotation Yrotation Xrotation
									End Site
									{
										OFFSET 0.54008 -0.00000 0.54008
									}
								}
							}
						}
					}
				}
				JOINT RightShoulder
				{
					OFFSET 0 0 0
					CHANNELS 3 Zrotation Yrotation Xrotation
					JOINT RightArm
					{
						OFFSET -3.31725 1.61216 0.35156
						CHANNELS 3 Zrotation Yrotation Xrotation
						JOINT RightForeArm
						{
							OFFSET -4.48913 -0.00000 0.00000
							CHANNELS 3 Zrotation Yrotation Xrotation
							JOINT RightHand
							{
								OFFSET -3.70510 -0.00000 0.00000
								CHANNELS 3 Zrotation Yrotation Xrotation
								JOINT RightFingerBase
								{
									OFFSET 0 0 0
									CHANNELS 3 Zrotation Yrotation Xrotation
									JOINT RightHandIndex1
									{
										OFFSET -0.44914 -0.00000 0.00000
										CHANNELS 3 Zrotation Yrotation Xrotation
										End Site
										{
											OFFSET -0.36211 -0.00000 0.00000
										}
									}
								}
								JOINT RThumb
								{
									OFFSET 0 0 0
									CHANNELS 3 Zrotation Yrotation Xrotation
									End Site
									{
										OFFSET -0.36763 -0.00000 0.36763
									}
								}
							}
						}
					}
				}
			}
		}
	}
}
MOTION
Frames: 5
Frame Time: .0083333
-0.7365 18.7424 5.3754 -1.7186 -3.3545 2.9365 0.0000 0.0000 0.0000 -12.6743 -9.1327 -2.8452 1.2407 7.0630 19.9021 1.6403 8.7918 -28.7525 7.8126 -15.9796 -51.8847 0.0000 0.0000 0.0000 0.0000 0.0000 0.0000 0.0000 0.0000 0.0000 -0.0000 -0.0000 0.0000 -0.0000 -0.0000 0.0000 -1.2693 1.7965 3.9580 -0.4570 2.3526 2.7969 0.1633 1.1622 0.6206 -0.9573 -1.2363 8.0977 4.7201 -2.1044 12.8464 1.6941 -0.9787 2.8041 0.0000 0.0000 0.0000 -52.2803 -24.8247 51.1098 157.4253 -33.6205 -113.0986 -0.0000 0.0000 -46.8299 29.1971 -24.4834 -13.0392 -7.1250 0.0000 -0.0000 -0.1427 2.4308 0.1365 0.0000 0.0000 0.0000 52.2986 16.5662 47.3202 -158.8463 32.0074 -113.8688 0.0000 -0.0000 -25.0719 -13.6343 -33.6583 7.6567 7.1250 -0.0000 -0.0000 23.2370 -62.9153 -10.3992
-0.7367 18.7418 5.3776 -1.6578 -3.3643 2.9427 0.0000 0.0000 0.0000 -12.7392 -9.0943 -2.8540 1.2371 7.0532 19.8732 1.6267 8.8516 -28.7018 7.8218 -15.9866 -51.9184 0.0000 0.0000 0.0000 0.0000 0.0000 0.0000 0.0000 0.0000 0.0000 -0.0000 -0.0000 0.0000 -0.0000 -0.0000 0.0000 -1.3284 1.7956 3.9492 -0.4839 2.3493 2.7530 0.1684 1.1603 0.5793 -0.9275 -1.2210 8.1507 4.7392 -2.0861 12.9016 1.6959 -0.9679 2.8131 0.0000 -0.0000 0.0000 -52.5185 -24.8401 51.1445 157.3589 -33.6940 -113.0618 -0.0000 0.0000 -47.4366 29.3129 -24.4563 -13.0859 -7.1250 0.0000 -0.0000 -0.0683 2.4336 0.0654 0.0000 -0.0000 0.0000 52.5730 16.6172 47.3215 -158.7899 32.0728 -113.8389 0.0000 -0.0000 -25.3689 -13.6447 -34.0003 7.7304 7.1250 -0.0000 -0.0000 23.5612 -63.2266 -10.7248
-0.7365 18.7414 5.3794 -1.6185 -3.3810 2.9447 0.0000 0.0000 0.0000 -12.7774 -9.0345 -2.8631 1.2356 7.0491 19.8609 1.6260 8.8133 -28.6712 7.8165 -15.9826 -51.8992 0.0000 0.0000 0.0000 0.0000 0.0000 0.0000 0.0000 0.0000 0.0000 -0.0000 -0.0000 0.0000 -0.0000 -0.0000 0.0000 -1.3535 1.8002 3.9444 -0.5252 2.3541 2.6990 0.1390 1.1632 0.5272 -0.7511 -1.2410 8.2191 4.6346 -2.0956 12.9581 1.6309 -0.9671 2.8164 -0.0000 0.0000 0.0000 -52.7603 -24.8572 51.1937 157.3163 -33.7412 -113.0382 -0.0000 0.0000 -48.0078 29.3803 -24.3368 -13.0626 -7.1250 0.0000 -0.0000 -0.0090 2.5482 0.0086 -0.0000 0.0000 0.0000 52.8863 16.7118 47.2961 -158.6958 32.1817 -113.7888 0.0000 -0.0000 -25.5762 -13.5540 -34.2908 7.7346 7.1250 -0.0000 -0.0000 23.9511 -63.4638 -11.0458
-0.7355 18.7410 5.3822 -1.6431 -3.4069 2.9523 0.0000 0.0000 0.0000 -12.7618 -9.0613 -2.8490 1.2372 7.0535 19.8739 1.6291 8.8252 -28.6998 7.8128 -15.9798 -51.8855 0.0000 0.0000 0.0000 0.0000 0.0000 0.0000 0.0000 0.0000 0.0000 -0.0000 -0.0000 0.0000 -0.0000 -0.0000 0.0000 -1.2976 1.8031 3.9150 -0.5476 2.3597 2.6537 0.0849 1.1672 0.5001 -0.5525 -1.2847 8.2654 4.4790 -2.1307 13.0073 1.5452 -0.9789 2.8205 0.0000 -0.0000 0.0000 -53.0173 -24.9357 51.2237 157.2779 -33.7835 -113.0169 -0.0000 0.0000 -48.6698 29.4001 -23.8938 -12.8565 -7.1250 0.0000 -0.0000 0.0710 3.0266 -0.0672 0.0000 -0.0000 0.0000 53.2025 16.7882 47.3120 -158.6021 32.2898 -113.7389 0.0000 -0.0000 -25.7128 -13.5744 -34.5489 7.7970 7.1250 -0.0000 -0.0000 24.1934 -63.7004 -11.2978
-0.7341 18.7410 5.3861 -1.7247 -3.4139 2.9492 0.0000 0.0000 0.0000 -12.6861 -9.0921 -2.8177 1.2404 7.0623 19.9000 1.6397 8.8162 -28.7651 7.8200 -15.9853 -51.9118 0.0000 0.0000 0.0000 0.0000 0.0000 0.0000 0.0000 0.0000 0.0000 -0.0000 -0.0000 0.0000 -0.0000 -0.0000 0.0000 -1.1857 1.7935 3.8656 -0.5234 2.3511 2.6251 0.0486 1.1642 0.5018 -0.5117 -1.3116 8.3128 4.4365 -2.1609 13.0205 1.5243 -0.9934 2.8164 -0.0000 -0.0000 0.0000 -53.3818 -25.0311 51.2819 157.1917 -33.8785 -112.9689 -0.0000 0.0000 -49.3638 29.3920 -23.5254 -12.6716 -7.1250 0.0000 -0.0000 0.1217 3.4306 -0.1142 -0.0000 -0.0000 0.0000 53.4554 16.8393 47.3385 -158.5111 32.3946 -113.6902 0.0000 -0.0000 -25.7817 -13.8065 -35.0264 8.0284 7.1250 -0.0000 -0.0000 24.4423 -64.1887 -11.6989
